<?xml version="1.0" ?><svg id="Layer_3" style="enable-background:new 0 0 64 64;" version="1.0" viewBox="0 0 64 64" xml:space="preserve" xmlns="http://www.w3.org/2000/svg" xmlns:xlink="http://www.w3.org/1999/xlink"><path d="M45.18,56.28H37.4c-8.4,0-13.22-4.82-13.22-13.22v-12.8h-5.36c-0.55,0-1-0.45-1-1v-7.47c0-0.46,0.31-0.85,0.75-0.97  c6.55-1.7,9.21-7.4,9.52-12.16c0.03-0.53,0.47-0.94,1-0.94h7.27c0.55,0,1,0.45,1,1v10.85h7.48c0.55,0,1,0.45,1,1v8.69  c0,0.55-0.45,1-1,1h-7.48v11.02c0,2.73,1.08,3.85,3.71,3.85h4.11c0.55,0,1,0.45,1,1v9.16C46.18,55.83,45.73,56.28,45.18,56.28z   M19.82,28.26h5.36c0.55,0,1,0.45,1,1v13.8c0,9.76,7.03,11.22,11.22,11.22h6.78v-7.16h-3.11c-3.74,0-5.71-2.02-5.71-5.85V29.26  c0-0.55,0.45-1,1-1h7.48v-6.69h-7.48c-0.55,0-1-0.45-1-1V9.72H30c-0.61,5.06-3.55,10.75-10.18,12.82V28.26z"/></svg>